<svg id="Capa_1" enable-background="new 0 0 512 512" height="512" viewBox="0 0 512 512" width="512" xmlns="http://www.w3.org/2000/svg"><g><g><circle cx="256" cy="256" fill="#5de1c4" r="248.5"/><path d="m373.987 37.248c25.303 38.924 40.013 85.367 40.013 135.252 0 137.243-111.257 248.5-248.5 248.5-42.702 0-82.885-10.776-117.987-29.748 44.31 68.163 121.129 113.248 208.487 113.248 137.243 0 248.5-111.257 248.5-248.5 0-94.541-52.798-176.746-130.513-218.752z" fill="#0ed2b3"/><circle cx="256" cy="256" fill="#c6f2e7" r="216.385"/><path d="m402.115 96.408c7.707 23.983 11.885 49.548 11.885 76.092 0 137.243-111.257 248.5-248.5 248.5-19.553 0-38.575-2.266-56.826-6.536 38.631 35.932 90.407 57.92 147.326 57.92 119.506 0 216.385-96.879 216.385-216.385 0-63.18-27.085-120.031-70.27-159.591z" fill="#a7eedc"/><g><path d="m329.307 137.547h-72.672c-.037 0-.072-.006-.108-.006s-.072.005-.108.006h-72.672c-10.336 0-18.715 8.433-18.715 18.834 0 10.402 8.379 18.834 18.715 18.834h54.066v180.408c0 10.402 8.379 18.834 18.715 18.834s18.715-8.433 18.715-18.834v-180.407h54.066c10.336 0 18.715-8.433 18.715-18.834-.002-10.403-8.381-18.835-18.717-18.835z" fill="#5de1c4"/><g><path d="m256 279.745c-27.757 0-53.946-3.133-73.746-8.823-23.302-6.696-35.117-16.051-35.117-27.805 0-12.588 14.182-22.746 41.013-29.376 4.019-.992 8.086 1.461 9.08 5.482.993 4.021-1.461 8.086-5.482 9.08-24.585 6.074-29.61 13.23-29.61 14.813 0 2.094 5.93 8.121 24.26 13.388 18.49 5.313 43.209 8.239 69.604 8.239s51.113-2.926 69.604-8.239c18.33-5.268 24.26-11.294 24.26-13.388 0-1.527-4.8-8.461-28.284-14.48-4.012-1.028-6.432-5.115-5.403-9.127 1.029-4.013 5.115-6.43 9.128-5.403 25.88 6.633 39.56 16.665 39.56 29.01 0 11.754-11.815 21.108-35.117 27.805-19.804 5.691-45.993 8.824-73.75 8.824z" fill="#5de1c4"/></g></g></g><g><path d="m437.02 74.98c-48.352-48.351-112.64-74.98-181.02-74.98s-132.668 26.629-181.02 74.98c-48.351 48.353-74.98 112.64-74.98 181.02s26.629 132.667 74.98 181.02c48.352 48.351 112.64 74.98 181.02 74.98 101.957 0 194.136-60.417 234.836-153.919 1.653-3.798-.086-8.217-3.884-9.87-3.797-1.653-8.216.086-9.87 3.884-38.316 88.026-125.097 144.905-221.082 144.905-64.374 0-124.894-25.068-170.413-70.587s-70.587-106.039-70.587-170.413 25.068-124.894 70.587-170.413 106.039-70.587 170.413-70.587 124.894 25.068 170.413 70.587 70.587 106.039 70.587 170.413c0 21.549-2.844 42.915-8.452 63.502-1.089 3.997 1.269 8.119 5.265 9.208 3.994 1.087 8.118-1.268 9.208-5.265 5.958-21.873 8.979-44.565 8.979-67.445 0-68.38-26.629-132.667-74.98-181.02z"/><path d="m47.479 197.505c-4.032-.975-8.08 1.496-9.057 5.52-4.185 17.245-6.307 35.068-6.307 52.975 0 59.802 23.288 116.024 65.574 158.311 42.286 42.286 98.509 65.574 158.311 65.574s116.024-23.288 158.311-65.574c42.286-42.287 65.574-98.509 65.574-158.311s-23.288-116.024-65.574-158.311c-42.287-42.286-98.509-65.574-158.311-65.574-45.121 0-88.614 13.363-125.778 38.645-36.271 24.675-64.307 59.06-81.073 99.438-1.588 3.825.225 8.214 4.051 9.803 3.824 1.586 8.213-.225 9.803-4.05 15.644-37.674 41.806-69.76 75.657-92.788 34.665-23.583 75.24-36.048 117.34-36.048 115.18 0 208.885 93.706 208.885 208.885s-93.705 208.885-208.885 208.885-208.885-93.706-208.885-208.885c0-16.716 1.979-33.349 5.883-49.438.978-4.025-1.494-8.08-5.519-9.057z"/><path d="m191.747 228.304c4.021-.994 6.476-5.059 5.482-9.08s-5.062-6.474-9.08-5.482c-26.831 6.63-41.013 16.788-41.013 29.376 0 11.754 11.815 21.108 35.117 27.805 13.543 3.892 30.078 6.586 48.058 7.901v76.801c0 14.521 11.76 26.334 26.215 26.334s26.215-11.813 26.215-26.334v-76.885c17.57-1.342 33.728-4.001 47.005-7.817 23.302-6.696 35.117-16.051 35.117-27.805 0-12.346-13.68-22.377-39.56-29.01-4.013-1.027-8.099 1.391-9.128 5.403-1.028 4.012 1.392 8.099 5.403 9.127 23.484 6.019 28.284 12.953 28.284 14.48 0 2.094-5.93 8.121-24.26 13.388-12.057 3.464-26.771 5.906-42.862 7.191v-80.981h46.566c14.455 0 26.215-11.813 26.215-26.334s-11.76-26.334-26.215-26.334h-72.505c-.21-.008-.387-.007-.566 0h-72.49c-14.455 0-26.215 11.813-26.215 26.334s11.76 26.334 26.215 26.334h46.565v81.064c-16.503-1.261-31.596-3.734-43.915-7.274-18.33-5.268-24.26-11.294-24.26-13.388.002-1.584 5.027-8.74 29.612-14.814zm75.994 127.32c0 6.25-5.031 11.334-11.215 11.334s-11.215-5.084-11.215-11.334v-76.038c3.53.104 7.095.159 10.688.159 3.952 0 7.867-.071 11.741-.196v76.075zm-29.929-187.908h-54.065c-6.184 0-11.215-5.084-11.215-11.334s5.031-11.334 11.215-11.334h72.771.01c.042 0 .071.001.108.001h72.673c6.184 0 11.215 5.084 11.215 11.334s-5.031 11.334-11.215 11.334h-54.066c-4.143 0-7.5 3.358-7.5 7.5v89.326c-3.868.13-7.782.204-11.741.204-3.599 0-7.163-.059-10.688-.167v-89.362c-.002-4.144-3.36-7.502-7.502-7.502z"/></g></g></svg>