<svg id="Capa_1" enable-background="new 0 0 512 512" height="512" viewBox="0 0 512 512" width="512" xmlns="http://www.w3.org/2000/svg" xmlns:xlink="http://www.w3.org/1999/xlink"><linearGradient id="SVGID_1_" gradientUnits="userSpaceOnUse" x1="-107" x2="724.004" y1="256.713" y2="256.713"><stop offset=".007" stop-color="#9494ff"/><stop offset=".992" stop-color="#ffe8dc" stop-opacity="0"/></linearGradient><path d="m512 256.713c0-27.631-12.504-53.535-34.347-75.837-15.199-15.518-27.854-33.295-37.513-52.751-30.889-62.217-83.554-103.196-143.336-103.196-42.483 0-81.369 20.698-111.403 55.003-19.88 22.707-44.981 40.125-72.987 51.371-67.839 27.242-112.414 73.243-112.414 125.41s44.575 98.168 112.414 125.41c28.006 11.247 53.107 28.664 72.988 51.371 30.034 34.305 68.92 55.003 111.403 55.003 59.782 0 112.447-40.979 143.336-103.196 9.659-19.456 22.314-37.233 37.513-52.751 21.842-22.302 34.346-48.206 34.346-75.837z" fill="url(#SVGID_1_)"/><path d="m448.902 284.972c5.523 0 10-4.477 10-10v-68.425h-405.804v178.181c0 18.656 15.124 33.78 33.78 33.78h223.4c3.393 37.24 34.689 66.416 72.813 66.416 40.39 0 73.133-32.743 73.133-73.133 0-33.751-22.871-62.147-53.955-70.574v-56.244h46.633z" fill="#00c" opacity=".1"/><path d="m392.268 177.512h-305.383c-18.658 0-33.783-15.125-33.783-33.783 0-18.658 15.125-33.783 33.783-33.783h315.383v57.567c0 5.522-4.477 9.999-10 9.999z" fill="#4d4dff"/><path d="m448.902 263.971h-348.18c-5.523 0-10-4.477-10-10v-181.622c0-5.523 4.477-10 10-10h348.18c5.523 0 10 4.477 10 10v181.622c0 5.523-4.477 10-10 10z" fill="#ff8b00"/><path d="m416.549 98.651 2.491-10.104c.777-3.152-1.608-6.197-4.855-6.197h-278.747c-3.246 0-5.632 3.045-4.855 6.197l2.491 10.104c.9 3.651-2.401 6.952-6.052 6.052l-10.104-2.491c-3.152-.777-6.197 1.608-6.197 4.855v112.19c0 3.246 3.045 5.632 6.197 4.855l10.104-2.491c3.651-.9 6.952 2.401 6.052 6.052l-2.491 10.104c-.777 3.152 1.608 6.197 4.855 6.197h278.748c3.246 0 5.632-3.045 4.855-6.197l-2.491-10.104c-.9-3.651 2.401-6.952 6.052-6.052l10.104 2.491c3.152.777 6.197-1.608 6.197-4.855v-112.19c0-3.246-3.045-5.632-6.197-4.855l-10.104 2.491c-3.652.899-6.953-2.401-6.053-6.052z" fill="#fff"/><circle cx="274.812" cy="163.16" fill="#ffc599" r="57.305"/><circle cx="230.845" cy="119.193" fill="#ffab66" r="18.739"/><circle cx="318.78" cy="207.128" fill="#ffab66" r="18.739"/><path d="m281.332 188.352h-20.981c-2.762 0-5-2.239-5-5s2.238-5 5-5h20.981c2.81 0 5.096-2.286 5.096-5.096s-2.286-5.096-5.096-5.096h-13.039c-8.324 0-15.096-6.772-15.096-15.096s6.771-15.095 15.096-15.095h20.981c2.762 0 5 2.239 5 5s-2.238 5-5 5h-20.981c-2.81 0-5.096 2.286-5.096 5.095s2.286 5.096 5.096 5.096h13.039c8.324 0 15.096 6.772 15.096 15.096s-6.772 15.096-15.096 15.096z" fill="#ff7300"/><path d="m274.813 195.87c-2.762 0-5-2.239-5-5v-55.418c0-2.761 2.238-5 5-5s5 2.239 5 5v55.418c0 2.761-2.239 5-5 5z" fill="#ff7300"/><circle cx="362.902" cy="196.709" fill="#ff4d4d" r="5.59"/><circle cx="379.812" cy="196.709" fill="#ff4d4d" r="5.59"/><path d="m396.723 191.12c3.087 0 5.59 2.503 5.59 5.59s-2.503 5.59-5.59 5.59-5.59-2.503-5.59-5.59 2.502-5.59 5.59-5.59" fill="#ff4d4d"/><circle cx="362.902" cy="129.611" fill="#ff4d4d" r="5.59"/><circle cx="379.812" cy="129.611" fill="#ff4d4d" r="5.59"/><path d="m396.723 124.021c3.087 0 5.59 2.503 5.59 5.59s-2.503 5.59-5.59 5.59-5.59-2.503-5.59-5.59 2.502-5.59 5.59-5.59" fill="#ff4d4d"/><circle cx="152.902" cy="196.709" fill="#ff4d4d" r="5.59"/><circle cx="169.812" cy="196.709" fill="#ff4d4d" r="5.59"/><path d="m186.722 191.12c3.087 0 5.59 2.503 5.59 5.59s-2.503 5.59-5.59 5.59-5.59-2.503-5.59-5.59 2.503-5.59 5.59-5.59" fill="#ff4d4d"/><circle cx="152.902" cy="129.611" fill="#ff4d4d" r="5.59"/><circle cx="169.812" cy="129.611" fill="#ff4d4d" r="5.59"/><path d="m186.722 124.021c3.087 0 5.59 2.503 5.59 5.59s-2.503 5.59-5.59 5.59-5.59-2.503-5.59-5.59c.001-3.087 2.503-5.59 5.59-5.59" fill="#ff4d4d"/><path d="m402.268 187.517v199.99c0 5.523-4.477 10-10 10h-305.39c-18.656 0-33.78-15.124-33.78-33.78v-220c0 18.66 15.13 33.79 33.79 33.79h305.38c5.523 0 10 4.477 10 10z" fill="#ff4d4d"/><g fill="#ff9494"><path d="m371.041 217.614h-12c-2.762 0-5-2.239-5-5s2.238-5 5-5h12c2.762 0 5 2.239 5 5s-2.238 5-5 5z"/><path d="m331.173 217.614h-12c-2.762 0-5-2.239-5-5s2.238-5 5-5h12c2.762 0 5 2.239 5 5s-2.238 5-5 5z"/><path d="m291.306 217.614h-12c-2.762 0-5-2.239-5-5s2.238-5 5-5h12c2.762 0 5 2.239 5 5s-2.239 5-5 5z"/><path d="m251.438 217.614h-12c-2.762 0-5-2.239-5-5s2.238-5 5-5h12c2.762 0 5 2.239 5 5s-2.239 5-5 5z"/><path d="m211.569 217.614h-12c-2.762 0-5-2.239-5-5s2.238-5 5-5h12c2.762 0 5 2.239 5 5s-2.238 5-5 5z"/><path d="m171.702 217.614h-12c-2.762 0-5-2.239-5-5s2.238-5 5-5h12c2.762 0 5 2.239 5 5s-2.238 5-5 5z"/><path d="m131.834 217.614h-12c-2.762 0-5-2.239-5-5s2.238-5 5-5h12c2.762 0 5 2.239 5 5s-2.238 5-5 5z"/><path d="m371.874 343.218c-2.762 0-5-2.239-5-5v-12c0-2.761 2.238-5 5-5s5 2.239 5 5v12c0 2.761-2.238 5-5 5z"/><path d="m371.874 303.35c-2.762 0-5-2.239-5-5v-12c0-2.761 2.238-5 5-5s5 2.239 5 5v12c0 2.761-2.238 5-5 5z"/><path d="m371.874 263.482c-2.762 0-5-2.239-5-5v-12c0-2.761 2.238-5 5-5s5 2.239 5 5v12c0 2.761-2.238 5-5 5z"/><path d="m371.041 370.281h-12c-2.762 0-5-2.239-5-5s2.238-5 5-5h12c2.762 0 5 2.239 5 5s-2.238 5-5 5z"/><path d="m331.173 370.281h-12c-2.762 0-5-2.239-5-5s2.238-5 5-5h12c2.762 0 5 2.239 5 5s-2.238 5-5 5z"/><path d="m291.306 370.281h-12c-2.762 0-5-2.239-5-5s2.238-5 5-5h12c2.762 0 5 2.239 5 5s-2.239 5-5 5z"/><path d="m251.438 370.281h-12c-2.762 0-5-2.239-5-5s2.238-5 5-5h12c2.762 0 5 2.239 5 5s-2.239 5-5 5z"/><path d="m211.569 370.281h-12c-2.762 0-5-2.239-5-5s2.238-5 5-5h12c2.762 0 5 2.239 5 5s-2.238 5-5 5z"/><path d="m171.702 370.281h-12c-2.762 0-5-2.239-5-5s2.238-5 5-5h12c2.762 0 5 2.239 5 5s-2.238 5-5 5z"/><path d="m131.834 370.281h-12c-2.762 0-5-2.239-5-5s2.238-5 5-5h12c2.762 0 5 2.239 5 5s-2.238 5-5 5z"/></g><circle cx="383.09" cy="390.79" fill="#ff9d33" r="73.133"/><path d="m448.902 268.971c8.271 0 15-6.729 15-15v-181.622c0-8.271-6.729-15-15-15h-348.18c-8.271 0-15 6.729-15 15v32.626c-20.83.618-37.591 17.729-37.62 38.699 0 .018-.005.034-.005.052v220c0 21.383 17.396 38.78 38.78 38.78h189.079c2.762 0 5-2.239 5-5s-2.238-5-5-5h-189.078c-15.869 0-28.78-12.911-28.78-28.78v-194.03c7.104 7.868 17.38 12.82 28.79 12.82h305.38c2.757 0 5 2.243 5 5v42.455c0 2.761 2.238 5 5 5s5-2.239 5-5v-42.455c0-8.271-6.729-15-15-15h-4.733v-24.387c0-2.761-2.238-5-5-5h-5.444c-2.762 0-5 2.239-5 5s2.238 5 5 5h.444v19.387h-200v-24.387c0-2.761-2.238-5-5-5h-5.444c-2.762 0-5 2.239-5 5s2.238 5 5 5h.444v19.387h-71.812v-100.167c0-2.757 2.243-5 5-5h348.18c2.757 0 5 2.243 5 5v181.622c0 2.757-2.243 5-5 5h-46.635c-2.762 0-5 2.239-5 5v49.999c-4.601-.847-9.335-1.313-14.178-1.313-43.082 0-78.132 35.05-78.132 78.133s35.05 78.133 78.132 78.133c43.083 0 78.133-35.05 78.133-78.133 0-34.645-22.673-64.079-53.955-74.286v-47.533zm-390.803-125.212c0-.01.003-.02.003-.031 0-15.481 12.287-28.141 27.621-28.754v57.512c-15.326-.613-27.607-13.258-27.624-28.727zm393.124 247.031c0 37.568-30.564 68.133-68.133 68.133s-68.132-30.564-68.132-68.133 30.563-68.133 68.132-68.133 68.133 30.565 68.133 68.133z" fill="#00c"/><circle cx="383.09" cy="390.79" fill="#fff" r="53.958"/><path d="m389.984 417.142h-19.013c-2.762 0-5-2.239-5-5s2.238-5 5-5h19.013c3.13 0 5.676-2.546 5.676-5.676s-2.546-5.676-5.676-5.676h-13.788c-8.644 0-15.676-7.032-15.676-15.676s7.032-15.676 15.676-15.676h19.013c2.762 0 5 2.239 5 5s-2.238 5-5 5h-19.013c-3.13 0-5.676 2.546-5.676 5.676s2.546 5.676 5.676 5.676h13.788c8.644 0 15.676 7.032 15.676 15.676s-7.032 15.676-15.676 15.676z" fill="#ff7300"/><path d="m383.09 425.091c-2.762 0-5-2.239-5-5v-58.603c0-2.761 2.238-5 5-5s5 2.239 5 5v58.603c0 2.762-2.238 5-5 5z" fill="#ff7300"/><path d="m154.702 43.503c-1.279 0-2.56-.488-3.535-1.464-1.953-1.953-1.953-5.119 0-7.071l10-10c1.951-1.952 5.119-1.952 7.07 0 1.953 1.953 1.953 5.119 0 7.071l-10 10c-.975.976-2.256 1.464-3.535 1.464z" fill="#ff6c6c"/><path d="m446.223 308.35c-1.279 0-2.56-.488-3.535-1.464-1.953-1.953-1.953-5.119 0-7.071l10-10c1.951-1.952 5.119-1.952 7.07 0 1.953 1.953 1.953 5.119 0 7.071l-10 10c-.976.975-2.256 1.464-3.535 1.464z" fill="#ff6c6c"/><path d="m155.702 449.863c-1.279 0-2.56-.488-3.535-1.464-1.953-1.953-1.953-5.119 0-7.071l10-10c1.951-1.952 5.119-1.952 7.07 0 1.953 1.953 1.953 5.119 0 7.071l-10 10c-.975.976-2.256 1.464-3.535 1.464z" fill="#ff9d33"/><path d="m292.697 444.183c-1.279 0-2.56-.488-3.535-1.464l-6.465-6.464-6.465 6.464c-1.951 1.952-5.119 1.952-7.07 0-1.953-1.953-1.953-5.119 0-7.071l10-10c1.951-1.952 5.119-1.952 7.07 0l10 10c1.953 1.953 1.953 5.119 0 7.071-.975.976-2.255 1.464-3.535 1.464z" fill="#6c6cff"/><path d="m401.133 43.503c-1.279 0-2.56-.488-3.535-1.464l-6.465-6.464-6.465 6.464c-1.951 1.952-5.119 1.952-7.07 0-1.953-1.953-1.953-5.119 0-7.071l10-10c1.951-1.952 5.119-1.952 7.07 0l10 10c1.953 1.953 1.953 5.119 0 7.071-.976.976-2.256 1.464-3.535 1.464z" fill="#ff9d33"/></svg>