<svg id="Layer_1" enable-background="new 0 0 511.976 511.976" height="512" viewBox="0 0 511.976 511.976" width="512" xmlns="http://www.w3.org/2000/svg"><path d="m306.237 217.309 89.74-28.44-140-180.88-140 180.88 89.74 28.44-89.74 28.44 89.74 28.44-89.74 28.44 140 44.37 140-44.37-89.74-28.44 89.74-28.44z" fill="#5f606e"/><path d="m115.977 336.759 140 167.23 140-167.23-140 44.37z" fill="#5f606e"/><g fill="#535460"><path d="m255.977 7.989 140 180.88c-75.256 23.85-72.049 22.833-140 44.37z"/><path d="m395.977 336.759-140 167.23v-122.86z"/><path d="m395.977 245.749c-75.256 23.85-72.049 22.833-140 44.37-67.927-21.53-64.736-20.518-140-44.37l89.74-28.44 50.26 15.93 50.26-15.93z"/><path d="m395.977 302.629-140 44.37-140-44.37 89.74-28.44 50.26 15.93 50.26-15.93z"/></g><path d="m160.845 130.907c3.496 2.702 8.52 2.06 11.222-1.436 2.977-3.851 2.029-8.788-1.318-11.375-3.303-2.553-8.318-2.308-11.34 1.588-2.702 3.496-2.06 8.52 1.436 11.223z" fill="#2c2c3d"/><path d="m253.56 297.743c3.452 1.095-8.356 4.18 144.834-44.367 7.421-2.351 7.424-12.899 0-15.252l-44.546-14.116c-4.211-1.335-8.708.997-10.043 5.209s.998 8.708 5.209 10.043l20.481 6.49-113.519 35.975-113.518-35.975 63.262-20.048c51.279 16.251 49.193 16.262 52.674 15.161 147.552-46.76 142.057-43.725 144.516-48.02.644-1.124.958-2.222 1.042-3.405.316-4.394 7.559 6.431-141.649-186.346-2.785-3.608-7.991-4.083-11.389-1.296-1.055.863 3.637-5.035-75.977 97.825-2.704 3.494-2.064 8.519 1.43 11.223 3.495 2.704 8.519 2.064 11.223-1.43l60.386-78.019v190.914l-118.66-37.604 21.999-28.423c2.704-3.494 2.064-8.519-1.43-11.223-3.494-2.703-8.519-2.063-11.223 1.43-30.689 39.651-32.066 39.543-30.262 44.923.398 1.184 1.055 2.267 2.007 3.191 1.942 1.89-1.54.406 68.832 22.707l-65.679 20.814c-7.418 2.351-7.425 12.9 0 15.252l65.68 20.814-65.68 20.814c-7.418 2.351-7.425 12.9 0 15.252l140 44.367c3.452 1.095-8.356 4.18 144.834-44.367 7.419-2.351 7.422-12.9 0-15.252l-39.487-12.514c-4.213-1.332-8.709.998-10.043 5.209-1.335 4.212.998 8.708 5.209 10.043l15.423 4.888-113.519 35.975-113.519-35.975 63.262-20.048zm10.417-75.434v-190.914l118.66 153.31z" fill="#2c2c3d"/><path d="m393.56 329.133-137.583 43.601-137.583-43.601c-7.599-2.408-13.675 6.641-8.551 12.761l139.961 167.182c2.494 3.325 8.182 4.12 11.759.634.493-.482-4.697 5.68 140.549-167.816 5.117-6.114-.948-15.173-8.552-12.761zm-145.583 57.851v94.987l-108.237-129.289zm16 94.986v-94.987l108.236-34.302z" fill="#2c2c3d"/></svg>